<svg width="102" height="104" viewBox="0 0 102 104" fill="none" xmlns="http://www.w3.org/2000/svg">
<path d="M51.1438 0.072464C23.0526 0.072464 0.287689 23.2389 0.287689 51.8116C0.287689 80.3843 23.0632 103.551 51.1438 103.551C79.2351 103.551 102 80.3843 102 51.8116C102 23.2389 79.2351 0.072464 51.1438 0.072464ZM66.4092 98.2818C63.9591 98.7675 63.0962 97.2364 63.0962 95.9271C63.0962 94.3222 63.1495 89.0427 63.1495 82.4961C63.1495 77.924 61.6048 74.9358 59.8791 73.4153C70.6171 72.2116 81.877 68.0619 81.877 49.2563C81.877 43.9135 80.0128 39.5315 76.9235 36.1104C77.4135 34.875 79.0753 29.9017 76.4441 23.1545C76.4441 23.1545 72.4067 21.8346 63.2028 28.1805C59.3571 27.093 55.2345 26.5439 51.1438 26.5228C47.0425 26.5439 42.9199 27.0824 39.0849 28.1805C29.881 21.8451 25.8329 23.1545 25.8329 23.1545C23.2124 29.9017 24.8636 34.875 25.3642 36.1104C22.2856 39.5315 20.4107 43.9029 20.4107 49.2563C20.4107 68.0197 31.66 72.2222 42.3553 73.4576C40.9811 74.6824 39.7348 76.8364 39.298 80.0041C36.5496 81.2501 29.5721 83.4147 25.279 75.9284C25.279 75.9284 22.733 71.2296 17.8967 70.8812C17.8967 70.8812 13.1882 70.8178 17.5664 73.8588C17.5664 73.8588 20.7303 75.3582 22.9141 81.0178C22.9141 81.0178 25.7477 90.542 39.1489 87.5855C39.1702 91.6718 39.2128 94.7551 39.2128 95.9166C39.2128 97.2153 38.3393 98.7253 35.9211 98.2712C16.7675 91.7986 2.97218 73.447 2.97218 51.8116C2.96153 24.7805 24.5333 2.86004 51.1438 2.86004C77.7544 2.86004 99.3262 24.7805 99.3262 51.8327C99.3262 73.4576 85.5309 91.7986 66.4092 98.2818Z" fill="#FFFFFF"/>
</svg>
